<?xml version="1.0" encoding="UTF-8" standalone="no"?>
<svg
   width="268"
   height="63.41580941198545"
   viewBox="0 0 268 63.41580941198545"
   class="editor-view__logo-preview"
   data-v-8d8ae3dd=""
   data-v-b9d2a614=""
   version="1.1"
   id="svg29"
   sodipodi:docname="logo.svg"
   inkscape:version="1.2.2 (732a01da63, 2022-12-09)"
   inkscape:export-filename="logo.svg"
   inkscape:export-xdpi="96"
   inkscape:export-ydpi="96"
   xmlns:inkscape="http://www.inkscape.org/namespaces/inkscape"
   xmlns:sodipodi="http://sodipodi.sourceforge.net/DTD/sodipodi-0.dtd"
   xmlns="http://www.w3.org/2000/svg"
   xmlns:svg="http://www.w3.org/2000/svg">
  <defs
     id="defs33" />
  <sodipodi:namedview
     id="namedview31"
     pagecolor="#ffffff"
     bordercolor="#000000"
     borderopacity="0.25"
     inkscape:showpageshadow="2"
     inkscape:pageopacity="0.0"
     inkscape:pagecheckerboard="0"
     inkscape:deskcolor="#d1d1d1"
     showgrid="false"
     inkscape:zoom="4.6529851"
     inkscape:cx="88.437851"
     inkscape:cy="31.807538"
     inkscape:window-width="1920"
     inkscape:window-height="1017"
     inkscape:window-x="-8"
     inkscape:window-y="-8"
     inkscape:window-maximized="1"
     inkscape:current-layer="g19" />
  <svg
     id="mark"
     viewBox="0 0 32 32"
     width="54"
     height="54"
     x="0"
     y="4.707904705992725"
     data-v-8d8ae3dd=""
     style="fill: rgb(0, 0, 0);"
     version="1.1">
    <rect
       x="0"
       y="0"
       width="100%"
       height="100%"
       fill="none"
       data-v-8d8ae3dd=""
       id="rect2" />
    <g
       data-v-8d8ae3dd=""
       id="g12"
       transform="translate(6.495233,0.50943004)">
      <g
         id="g10">
        <g
           id="g8">
          <polygon
             points="23.325,8.675 23.325,22.618 32,31.293 32,0 0.707,0 9.382,8.675 "
             id="polygon4" />
          <polygon
             points="8.675,23.325 8.675,9.382 0,0.707 0,32 31.293,32 22.618,23.325 "
             id="polygon6" />
        </g>
      </g>
    </g>
  </svg>
  <svg
     id="name"
     viewBox="0 0 198.21400451660156 36.34000015258789"
     width="198"
     height="36.300765164197834"
     x="70"
     y="4"
     data-v-8d8ae3dd=""
     style="fill: rgb(0, 0, 0);"
     version="1.1">
    <rect
       x="0"
       y="0"
       width="100%"
       height="100%"
       fill="none"
       data-v-8d8ae3dd=""
       id="rect15" />
    <g
       data-v-8d8ae3dd=""
       id="g19"
       transform="scale(0.93487269,1)">
      <path
         d="M 0,35.7 V 12.33 q 1.75,-0.51 4.51,-0.95 2.76,-0.43 5.79,-0.43 v 0 q 3.09,0 5.13,0.8 2.05,0.81 3.25,2.28 1.19,1.47 1.7,3.5 0.5,2.02 0.5,4.5 v 0 13.67 H 14.03 V 22.86 q 0,-3.31 -0.87,-4.69 -0.88,-1.38 -3.27,-1.38 v 0 q -0.74,0 -1.56,0.07 -0.83,0.07 -1.48,0.16 v 0 18.68 z M 33.95,11.5 V 35.7 H 27.09 V 11.5 Z m 0.64,-6.99 v 0 q 0,1.88 -1.22,2.96 -1.22,1.09 -2.87,1.09 v 0 Q 28.84,8.56 27.62,7.47 26.4,6.39 26.4,4.51 v 0 q 0,-1.89 1.22,-2.97 1.22,-1.08 2.88,-1.08 v 0 q 1.65,0 2.87,1.08 1.22,1.08 1.22,2.97 z M 47.24,0 v 20.24 q 1.01,-1.1 2.1,-2.3 1.08,-1.2 2.09,-2.37 1.01,-1.17 1.91,-2.23 0.89,-1.06 1.54,-1.84 v 0 h 8.14 q -2.44,2.81 -4.76,5.36 -2.32,2.55 -5.08,5.27 v 0 q 1.38,1.24 2.85,2.96 1.47,1.73 2.85,3.57 1.38,1.84 2.53,3.68 1.15,1.84 1.93,3.36 v 0 h -7.86 q -0.74,-1.2 -1.68,-2.65 -0.95,-1.45 -2,-2.9 -1.06,-1.45 -2.23,-2.78 -1.18,-1.33 -2.33,-2.25 v 0 10.58 H 40.39 V 1.1 Z M 88,23.55 v 0 q 0,2.85 -0.83,5.22 -0.83,2.37 -2.39,4.05 -1.57,1.68 -3.75,2.6 -2.19,0.92 -4.9,0.92 v 0 q -2.67,0 -4.85,-0.92 -2.19,-0.92 -3.75,-2.6 -1.57,-1.68 -2.44,-4.05 -0.87,-2.37 -0.87,-5.22 v 0 q 0,-2.85 0.89,-5.2 0.9,-2.34 2.49,-4 1.58,-1.65 3.77,-2.57 2.18,-0.92 4.76,-0.92 v 0 q 2.62,0 4.81,0.92 2.18,0.92 3.75,2.57 1.56,1.66 2.43,4 0.88,2.35 0.88,5.2 z m -6.99,0 v 0 q 0,-3.17 -1.27,-4.99 -1.26,-1.82 -3.61,-1.82 v 0 q -2.35,0 -3.63,1.82 -1.29,1.82 -1.29,4.99 v 0 q 0,3.18 1.29,5.04 1.28,1.86 3.63,1.86 v 0 q 2.35,0 3.61,-1.86 1.27,-1.86 1.27,-5.04 z M 111,11.5 v 4.6 q -0.83,0.92 -2.23,2.48 -1.41,1.57 -3.02,3.45 -1.61,1.89 -3.24,3.96 -1.63,2.07 -2.97,4 v 0 h 11.69 V 35.7 H 91.22 v -4.05 q 0.96,-1.66 2.32,-3.57 1.36,-1.91 2.85,-3.84 1.5,-1.93 2.97,-3.75 1.47,-1.81 2.71,-3.29 v 0 h -10.3 v -5.7 z m 12.46,-1.79 v 20.14 q 0.51,0.05 1.18,0.07 0.66,0.03 1.58,0.03 v 0 q 5.39,0 7.99,-2.72 2.59,-2.71 2.59,-7.5 v 0 q 0,-5.01 -2.48,-7.59 -2.48,-2.57 -7.87,-2.57 v 0 q -0.73,0 -1.51,0.02 -0.79,0.02 -1.48,0.12 z m 20.75,10.02 v 0 q 0,4.14 -1.29,7.23 -1.29,3.08 -3.65,5.1 -2.37,2.03 -5.78,3.04 -3.4,1.01 -7.63,1.01 v 0 q -1.94,0 -4.51,-0.16 -2.58,-0.16 -5.06,-0.67 v 0 -31.05 q 2.48,-0.46 5.17,-0.62 2.69,-0.16 4.63,-0.16 v 0 q 4.09,0 7.43,0.92 3.33,0.92 5.72,2.9 2.39,1.98 3.68,5.06 1.29,3.08 1.29,7.4 z m 4.37,4.05 v 0 q 0,-3.22 0.99,-5.63 0.99,-2.42 2.6,-4.03 1.61,-1.61 3.7,-2.44 2.09,-0.82 4.3,-0.82 v 0 q 5.15,0 8.14,3.15 2.99,3.15 2.99,9.27 v 0 q 0,0.59 -0.04,1.31 -0.05,0.71 -0.09,1.26 v 0 h -15.55 q 0.23,2.12 1.98,3.36 1.74,1.24 4.69,1.24 v 0 q 1.88,0 3.7,-0.34 1.82,-0.35 2.97,-0.85 v 0 l 0.92,5.56 q -0.55,0.28 -1.47,0.55 -0.92,0.28 -2.05,0.49 -1.13,0.2 -2.42,0.34 -1.28,0.14 -2.57,0.14 v 0 q -3.27,0 -5.68,-0.97 -2.42,-0.96 -4,-2.64 -1.59,-1.68 -2.35,-3.98 -0.76,-2.3 -0.76,-4.97 z m 7.04,-2.62 h 9.06 q -0.05,-0.87 -0.3,-1.7 -0.25,-0.83 -0.78,-1.47 -0.53,-0.65 -1.33,-1.06 -0.81,-0.42 -2.01,-0.42 v 0 q -1.15,0 -1.97,0.39 -0.83,0.4 -1.38,1.04 -0.56,0.64 -0.85,1.49 -0.3,0.86 -0.44,1.73 z m 33.26,14.54 h -5.71 Q 180.83,31.1 178.41,24.93 176,18.77 173.83,11.5 v 0 h 7.27 q 0.46,1.79 1.08,3.89 0.62,2.09 1.29,4.23 0.67,2.14 1.34,4.16 0.66,2.03 1.31,3.68 v 0 q 0.59,-1.65 1.28,-3.68 0.69,-2.02 1.36,-4.16 0.67,-2.14 1.29,-4.23 0.62,-2.1 1.08,-3.89 v 0 h 7.08 q -2.16,7.27 -4.57,13.43 -2.42,6.17 -4.76,10.77 z"
         id="path17" />
    </g>
  </svg>
  <svg
     id="slogan"
     viewBox="0 0 120.283203125 19.16015625"
     width="120"
     height="19.115044247787612"
     x="70"
     y="44.300765164197834"
     data-v-8d8ae3dd=""
     style="fill: rgb(45, 99, 153);"
     version="1.1">
    <rect
       x="0"
       y="0"
       width="100%"
       height="100%"
       fill="none"
       data-v-8d8ae3dd=""
       id="rect22" />
    <g
       data-v-8d8ae3dd=""
       id="g26"
       transform="translate(0,-1.7233841)">
      <path
         d="m 9.51,9.67 v 0.14 q 0,2.45 -1.11,3.92 -1.11,1.47 -2.99,1.47 v 0 q -1.6,0 -2.59,-1.12 v 0 4.98 H 0 V 4.43 H 2.62 L 2.71,5.47 Q 3.74,4.24 5.39,4.24 v 0 q 1.95,0 3.04,1.44 1.08,1.45 1.08,3.99 z M 6.69,9.61 v 0 Q 6.69,8.13 6.17,7.33 5.64,6.53 4.65,6.53 v 0 q -1.33,0 -1.83,1.02 v 0 4.33 q 0.52,1.04 1.85,1.04 v 0 q 2.02,0 2.02,-3.31 z m 9.43,5.59 v 0 q -2.32,0 -3.78,-1.43 -1.46,-1.43 -1.46,-3.8 v 0 -0.27 q 0,-1.59 0.61,-2.85 0.62,-1.25 1.75,-1.93 1.13,-0.68 2.57,-0.68 v 0 q 2.17,0 3.41,1.37 1.25,1.36 1.25,3.87 v 0 1.15 h -6.73 q 0.14,1.04 0.83,1.66 0.68,0.63 1.74,0.63 v 0 q 1.63,0 2.55,-1.18 v 0 l 1.38,1.55 q -0.63,0.9 -1.71,1.4 -1.09,0.51 -2.41,0.51 z M 15.8,6.52 v 0 q -0.84,0 -1.36,0.57 -0.52,0.57 -0.67,1.62 v 0 H 17.7 V 8.49 Q 17.68,7.55 17.19,7.04 16.7,6.52 15.8,6.52 Z M 28.05,4.37 28.01,7.08 Q 27.43,7 26.99,7 v 0 q -1.6,0 -2.1,1.09 v 0 V 15 H 22.07 V 4.43 h 2.67 l 0.07,1.26 q 0.85,-1.45 2.36,-1.45 v 0 q 0.47,0 0.88,0.13 z m 7.04,7.71 v 0 q 0,-0.52 -0.51,-0.82 -0.52,-0.29 -1.65,-0.53 v 0 Q 29.16,9.94 29.16,7.53 v 0 q 0,-1.41 1.17,-2.35 1.16,-0.94 3.05,-0.94 v 0 q 2.01,0 3.22,0.95 1.2,0.94 1.2,2.46 v 0 h -2.82 q 0,-0.61 -0.39,-1 -0.39,-0.4 -1.22,-0.4 v 0 q -0.71,0 -1.1,0.32 -0.39,0.32 -0.39,0.82 v 0 q 0,0.47 0.44,0.76 0.44,0.29 1.5,0.5 1.05,0.21 1.78,0.47 v 0 q 2.23,0.82 2.23,2.84 v 0 q 0,1.45 -1.24,2.34 -1.24,0.9 -3.2,0.9 v 0 q -1.33,0 -2.36,-0.48 Q 30,14.25 29.41,13.42 28.83,12.6 28.83,11.64 v 0 h 2.67 q 0.04,0.75 0.56,1.15 0.52,0.4 1.39,0.4 v 0 q 0.81,0 1.22,-0.3 0.42,-0.31 0.42,-0.81 z M 39.21,9.75 V 9.62 q 0,-1.57 0.6,-2.8 0.61,-1.23 1.75,-1.91 1.14,-0.67 2.64,-0.67 v 0 q 2.14,0 3.49,1.31 1.35,1.31 1.51,3.55 v 0 l 0.02,0.72 q 0,2.44 -1.36,3.91 -1.36,1.47 -3.64,1.47 -2.29,0 -3.65,-1.47 -1.36,-1.46 -1.36,-3.98 z m 2.82,0.07 v 0 q 0,1.51 0.57,2.3 0.56,0.8 1.62,0.8 v 0 q 1.02,0 1.6,-0.79 0.58,-0.78 0.58,-2.51 v 0 Q 46.4,8.14 45.82,7.33 45.24,6.52 44.2,6.52 v 0 q -1.04,0 -1.6,0.81 -0.57,0.8 -0.57,2.49 z M 50.9,4.43 h 2.65 l 0.09,1.22 q 1.14,-1.41 3.04,-1.41 v 0 q 1.68,0 2.5,0.98 0.82,0.99 0.84,2.95 v 0 V 15 H 57.2 V 8.24 q 0,-0.9 -0.39,-1.3 -0.39,-0.41 -1.3,-0.41 v 0 q -1.19,0 -1.79,1.02 v 0 V 15 H 50.9 Z M 71.13,15 H 68.28 Q 68.09,14.62 68,14.05 v 0 q -1.03,1.15 -2.67,1.15 v 0 q -1.55,0 -2.57,-0.9 -1.02,-0.9 -1.02,-2.27 v 0 q 0,-1.68 1.24,-2.58 1.25,-0.9 3.6,-0.91 v 0 h 1.3 V 7.94 Q 67.88,7.21 67.5,6.77 67.13,6.33 66.32,6.33 v 0 q -0.71,0 -1.12,0.34 -0.41,0.34 -0.41,0.94 v 0 h -2.82 q 0,-0.92 0.57,-1.7 0.57,-0.78 1.6,-1.23 1.04,-0.44 2.32,-0.44 v 0 q 1.96,0 3.11,0.98 1.14,0.98 1.14,2.76 v 0 4.58 q 0.01,1.5 0.42,2.27 v 0 z m -5.18,-1.96 v 0 q 0.62,0 1.15,-0.28 0.53,-0.28 0.78,-0.75 v 0 -1.81 h -1.05 q -2.12,0 -2.26,1.46 v 0 l -0.01,0.17 q 0,0.52 0.37,0.87 0.37,0.34 1.02,0.34 z M 75.86,0 V 15 H 73.03 V 0 Z m 16.83,9.66 v 0.15 q 0,2.54 -1.09,3.96 -1.08,1.43 -3.03,1.43 v 0 q -1.71,0 -2.74,-1.32 v 0 L 85.7,15 H 83.16 V 0 h 2.83 v 5.38 q 0.97,-1.14 2.56,-1.14 v 0 q 1.94,0 3.04,1.42 1.1,1.42 1.1,4 z M 89.86,9.61 v 0 q 0,-1.6 -0.5,-2.34 -0.51,-0.74 -1.52,-0.74 v 0 q -1.35,0 -1.85,1.11 v 0 4.17 q 0.51,1.11 1.87,1.11 v 0 q 1.37,0 1.8,-1.35 v 0 q 0.2,-0.64 0.2,-1.96 z M 97.4,0 V 15 H 94.57 V 0 Z m 1.89,9.75 V 9.62 q 0,-1.57 0.6,-2.8 0.61,-1.23 1.75,-1.91 1.13,-0.67 2.64,-0.67 v 0 q 2.14,0 3.49,1.31 1.35,1.31 1.51,3.55 v 0 l 0.02,0.72 q 0,2.44 -1.36,3.91 -1.36,1.47 -3.64,1.47 -2.29,0 -3.65,-1.47 -1.36,-1.46 -1.36,-3.98 z m 2.82,0.07 v 0 q 0,1.51 0.57,2.3 0.56,0.8 1.62,0.8 v 0 q 1.02,0 1.6,-0.79 0.57,-0.78 0.57,-2.51 v 0 q 0,-1.48 -0.57,-2.29 -0.58,-0.81 -1.62,-0.81 v 0 q -1.04,0 -1.6,0.81 -0.57,0.8 -0.57,2.49 z m 8.52,-0.06 V 9.64 q 0,-2.43 1.15,-3.92 1.16,-1.48 3.12,-1.48 v 0 q 1.74,0 2.71,1.19 v 0 l 0.11,-1 h 2.56 v 10.22 q 0,1.39 -0.63,2.41 -0.63,1.03 -1.77,1.56 -1.14,0.54 -2.67,0.54 v 0 q -1.17,0 -2.27,-0.46 -1.1,-0.47 -1.67,-1.2 v 0 l 1.25,-1.72 q 1.05,1.18 2.56,1.18 v 0 q 1.12,0 1.75,-0.6 0.62,-0.6 0.62,-1.7 v 0 -0.57 q -0.98,1.11 -2.57,1.11 v 0 q -1.9,0 -3.08,-1.49 -1.17,-1.49 -1.17,-3.95 z m 2.82,0.08 v 0 q 0,1.44 0.57,2.25 0.58,0.82 1.59,0.82 v 0 q 1.28,0 1.84,-0.97 v 0 -4.44 q -0.57,-0.97 -1.82,-0.97 v 0 q -1.02,0 -1.6,0.83 -0.58,0.83 -0.58,2.48 z"
         id="path24" />
    </g>
  </svg>
</svg>
