<svg xmlns="http://www.w3.org/2000/svg" width="268" height="63.41580941198545" viewBox="0 0 268 63.41580941198545" class="editor-view__logo-preview" data-v-8d8ae3dd="" data-v-b9d2a614=""><svg id="mark" viewBox="0 0 32 32" width="54" height="54" x="0" y="4.707904705992725" data-v-8d8ae3dd="" style="fill: rgb(0, 0, 0);"><rect x="0" y="0" width="100%" height="100%" fill="none" data-v-8d8ae3dd=""></rect><g data-v-8d8ae3dd=""><g xmlns="http://www.w3.org/2000/svg"><g><polygon points="9.382,8.675 23.325,8.675 23.325,22.618 32,31.293 32,0 0.707,0   "></polygon><polygon points="22.618,23.325 8.675,23.325 8.675,9.382 0,0.707 0,32 31.293,32   "></polygon></g></g></g></svg><svg id="name" viewBox="0 0 198.21400451660156 36.34000015258789" width="198" height="36.300765164197834" x="70" y="4" data-v-8d8ae3dd="" style="fill: rgb(0, 0, 0);"><rect x="0" y="0" width="100%" height="100%" fill="none" data-v-8d8ae3dd=""></rect><g data-v-8d8ae3dd=""><path xmlns="http://www.w3.org/2000/svg" d="M0 35.70L0 12.33Q1.75 11.82 4.51 11.38Q7.27 10.95 10.30 10.95L10.30 10.95Q13.39 10.95 15.43 11.75Q17.48 12.56 18.68 14.03Q19.87 15.50 20.38 17.53Q20.88 19.55 20.88 22.03L20.88 22.03L20.88 35.70L14.03 35.70L14.03 22.86Q14.03 19.55 13.16 18.17Q12.28 16.79 9.89 16.79L9.89 16.79Q9.15 16.79 8.33 16.86Q7.50 16.93 6.85 17.02L6.85 17.02L6.85 35.70L0 35.70ZM33.95 11.50L33.95 35.70L27.09 35.70L27.09 11.50L33.95 11.50ZM34.59 4.51L34.59 4.51Q34.59 6.39 33.37 7.47Q32.15 8.56 30.50 8.56L30.50 8.56Q28.84 8.56 27.62 7.47Q26.40 6.39 26.40 4.51L26.40 4.51Q26.40 2.62 27.62 1.54Q28.84 0.46 30.50 0.46L30.50 0.46Q32.15 0.46 33.37 1.54Q34.59 2.62 34.59 4.51ZM47.24 0L47.24 20.24Q48.25 19.14 49.34 17.94Q50.42 16.74 51.43 15.57Q52.44 14.40 53.34 13.34Q54.23 12.28 54.88 11.50L54.88 11.50L63.02 11.50Q60.58 14.31 58.26 16.86Q55.94 19.41 53.18 22.13L53.18 22.13Q54.56 23.37 56.03 25.09Q57.50 26.82 58.88 28.66Q60.26 30.50 61.41 32.34Q62.56 34.18 63.34 35.70L63.34 35.70L55.48 35.70Q54.74 34.50 53.80 33.05Q52.85 31.60 51.80 30.15Q50.74 28.70 49.57 27.37Q48.39 26.04 47.24 25.12L47.24 25.12L47.24 35.70L40.39 35.70L40.39 1.10L47.24 0ZM88.00 23.55L88.00 23.55Q88.00 26.40 87.17 28.77Q86.34 31.14 84.78 32.82Q83.21 34.50 81.03 35.42Q78.84 36.34 76.13 36.34L76.13 36.34Q73.46 36.34 71.28 35.42Q69.09 34.50 67.53 32.82Q65.96 31.14 65.09 28.77Q64.22 26.40 64.22 23.55L64.22 23.55Q64.22 20.70 65.11 18.35Q66.01 16.01 67.60 14.35Q69.18 12.70 71.37 11.78Q73.55 10.86 76.13 10.86L76.13 10.86Q78.75 10.86 80.94 11.78Q83.12 12.70 84.69 14.35Q86.25 16.01 87.12 18.35Q88.00 20.70 88.00 23.55ZM81.01 23.55L81.01 23.55Q81.01 20.38 79.74 18.56Q78.48 16.74 76.13 16.74L76.13 16.74Q73.78 16.74 72.50 18.56Q71.21 20.38 71.21 23.55L71.21 23.55Q71.21 26.73 72.50 28.59Q73.78 30.45 76.13 30.45L76.13 30.45Q78.48 30.45 79.74 28.59Q81.01 26.73 81.01 23.55ZM111.00 11.50L111.00 16.10Q110.17 17.02 108.77 18.58Q107.36 20.15 105.75 22.03Q104.14 23.92 102.51 25.99Q100.88 28.06 99.54 29.99L99.54 29.99L111.23 29.99L111.23 35.70L91.22 35.70L91.22 31.65Q92.18 29.99 93.54 28.08Q94.90 26.17 96.39 24.24Q97.89 22.31 99.36 20.49Q100.83 18.68 102.07 17.20L102.07 17.20L91.77 17.20L91.77 11.50L111.00 11.50ZM123.46 9.71L123.46 29.85Q123.97 29.90 124.64 29.92Q125.30 29.95 126.22 29.95L126.22 29.95Q131.61 29.95 134.21 27.23Q136.80 24.52 136.80 19.73L136.80 19.73Q136.80 14.72 134.32 12.14Q131.84 9.57 126.45 9.57L126.45 9.57Q125.72 9.57 124.94 9.59Q124.15 9.61 123.46 9.71L123.46 9.71ZM144.21 19.73L144.21 19.73Q144.21 23.87 142.92 26.96Q141.63 30.04 139.27 32.06Q136.90 34.09 133.49 35.10Q130.09 36.11 125.86 36.11L125.86 36.11Q123.92 36.11 121.35 35.95Q118.77 35.79 116.29 35.28L116.29 35.28L116.29 4.23Q118.77 3.77 121.46 3.61Q124.15 3.45 126.09 3.45L126.09 3.45Q130.18 3.45 133.52 4.37Q136.85 5.29 139.24 7.27Q141.63 9.25 142.92 12.33Q144.21 15.41 144.21 19.73ZM148.58 23.78L148.58 23.78Q148.58 20.56 149.57 18.15Q150.56 15.73 152.17 14.12Q153.78 12.51 155.87 11.68Q157.96 10.86 160.17 10.86L160.17 10.86Q165.32 10.86 168.31 14.01Q171.30 17.16 171.30 23.28L171.30 23.28Q171.30 23.87 171.26 24.59Q171.21 25.30 171.17 25.85L171.17 25.85L155.62 25.85Q155.85 27.97 157.60 29.21Q159.34 30.45 162.29 30.45L162.29 30.45Q164.17 30.45 165.99 30.11Q167.81 29.76 168.96 29.26L168.96 29.26L169.88 34.82Q169.33 35.10 168.41 35.37Q167.49 35.65 166.36 35.86Q165.23 36.06 163.94 36.20Q162.66 36.34 161.37 36.34L161.37 36.34Q158.10 36.34 155.69 35.37Q153.27 34.41 151.69 32.73Q150.10 31.05 149.34 28.75Q148.58 26.45 148.58 23.78ZM155.62 21.16L164.68 21.16Q164.63 20.29 164.38 19.46Q164.13 18.63 163.60 17.99Q163.07 17.34 162.27 16.93Q161.46 16.51 160.26 16.51L160.26 16.51Q159.11 16.51 158.29 16.90Q157.46 17.30 156.91 17.94Q156.35 18.58 156.06 19.43Q155.76 20.29 155.62 21.16L155.62 21.16ZM188.88 35.70L183.17 35.70Q180.83 31.10 178.41 24.93Q176.00 18.77 173.83 11.50L173.83 11.50L181.10 11.50Q181.56 13.29 182.18 15.39Q182.80 17.48 183.47 19.62Q184.14 21.76 184.81 23.78Q185.47 25.81 186.12 27.46L186.12 27.46Q186.71 25.81 187.40 23.78Q188.09 21.76 188.76 19.62Q189.43 17.48 190.05 15.39Q190.67 13.29 191.13 11.50L191.13 11.50L198.21 11.50Q196.05 18.77 193.64 24.93Q191.22 31.10 188.88 35.70L188.88 35.70Z"></path></g></svg><svg id="slogan" viewBox="0 0 120.283203125 19.16015625" width="120" height="19.115044247787612" x="70" y="44.300765164197834" data-v-8d8ae3dd="" style="fill: rgb(45, 99, 153);"><rect x="0" y="0" width="100%" height="100%" fill="none" data-v-8d8ae3dd=""></rect><g data-v-8d8ae3dd=""><path xmlns="http://www.w3.org/2000/svg" d="M9.51 9.67L9.51 9.81Q9.51 12.26 8.40 13.73Q7.29 15.20 5.41 15.20L5.41 15.20Q3.81 15.20 2.82 14.08L2.82 14.08L2.82 19.06L0 19.06L0 4.43L2.62 4.43L2.71 5.47Q3.74 4.24 5.39 4.24L5.39 4.24Q7.34 4.24 8.43 5.68Q9.51 7.13 9.51 9.67L9.51 9.67ZM6.69 9.61L6.69 9.61Q6.69 8.13 6.17 7.33Q5.64 6.53 4.65 6.53L4.65 6.53Q3.32 6.53 2.82 7.55L2.82 7.55L2.82 11.88Q3.34 12.92 4.67 12.92L4.67 12.92Q6.69 12.92 6.69 9.61ZM16.12 15.20L16.12 15.20Q13.80 15.20 12.34 13.77Q10.88 12.34 10.88 9.97L10.88 9.97L10.88 9.70Q10.88 8.11 11.49 6.85Q12.11 5.60 13.24 4.92Q14.37 4.24 15.81 4.24L15.81 4.24Q17.98 4.24 19.22 5.61Q20.47 6.97 20.47 9.48L20.47 9.48L20.47 10.63L13.74 10.63Q13.88 11.67 14.57 12.29Q15.25 12.92 16.31 12.92L16.31 12.92Q17.94 12.92 18.86 11.74L18.86 11.74L20.24 13.29Q19.61 14.19 18.53 14.69Q17.44 15.20 16.12 15.20ZM15.80 6.52L15.80 6.52Q14.96 6.52 14.44 7.09Q13.92 7.66 13.77 8.71L13.77 8.71L17.70 8.71L17.70 8.49Q17.68 7.55 17.19 7.04Q16.70 6.52 15.80 6.52ZM28.05 4.37L28.01 7.08Q27.43 7.00 26.99 7.00L26.99 7.00Q25.39 7.00 24.89 8.09L24.89 8.09L24.89 15L22.07 15L22.07 4.43L24.74 4.43L24.81 5.69Q25.66 4.24 27.17 4.24L27.17 4.24Q27.64 4.24 28.05 4.37L28.05 4.37ZM35.09 12.08L35.09 12.08Q35.09 11.56 34.58 11.26Q34.06 10.97 32.93 10.73L32.93 10.73Q29.16 9.94 29.16 7.53L29.16 7.53Q29.16 6.12 30.33 5.18Q31.49 4.24 33.38 4.24L33.38 4.24Q35.39 4.24 36.60 5.19Q37.80 6.13 37.80 7.65L37.80 7.65L34.98 7.65Q34.98 7.04 34.59 6.65Q34.20 6.25 33.37 6.25L33.37 6.25Q32.66 6.25 32.27 6.57Q31.88 6.89 31.88 7.39L31.88 7.39Q31.88 7.86 32.32 8.15Q32.76 8.44 33.82 8.65Q34.87 8.86 35.60 9.12L35.60 9.12Q37.83 9.94 37.83 11.96L37.83 11.96Q37.83 13.41 36.59 14.30Q35.35 15.20 33.39 15.20L33.39 15.20Q32.06 15.20 31.03 14.72Q30 14.25 29.41 13.42Q28.83 12.60 28.83 11.64L28.83 11.64L31.50 11.64Q31.54 12.39 32.06 12.79Q32.58 13.19 33.45 13.19L33.45 13.19Q34.26 13.19 34.67 12.89Q35.09 12.58 35.09 12.08ZM39.21 9.75L39.21 9.62Q39.21 8.05 39.81 6.82Q40.42 5.59 41.56 4.91Q42.70 4.24 44.20 4.24L44.20 4.24Q46.34 4.24 47.69 5.55Q49.04 6.86 49.20 9.10L49.20 9.10L49.22 9.82Q49.22 12.26 47.86 13.73Q46.50 15.20 44.22 15.20Q41.93 15.20 40.57 13.73Q39.21 12.27 39.21 9.75L39.21 9.75ZM42.03 9.82L42.03 9.82Q42.03 11.33 42.60 12.12Q43.16 12.92 44.22 12.92L44.22 12.92Q45.24 12.92 45.82 12.13Q46.40 11.35 46.40 9.62L46.40 9.62Q46.40 8.14 45.82 7.33Q45.24 6.52 44.20 6.52L44.20 6.52Q43.16 6.52 42.60 7.33Q42.03 8.13 42.03 9.82ZM50.90 4.43L53.55 4.43L53.64 5.65Q54.78 4.24 56.68 4.24L56.68 4.24Q58.36 4.24 59.18 5.22Q60 6.21 60.02 8.17L60.02 8.17L60.02 15L57.20 15L57.20 8.24Q57.20 7.34 56.81 6.94Q56.42 6.53 55.51 6.53L55.51 6.53Q54.32 6.53 53.72 7.55L53.72 7.55L53.72 15L50.90 15L50.90 4.43ZM71.13 15L68.28 15Q68.09 14.62 68.00 14.05L68.00 14.05Q66.97 15.20 65.33 15.20L65.33 15.20Q63.78 15.20 62.76 14.30Q61.74 13.40 61.74 12.03L61.74 12.03Q61.74 10.35 62.98 9.45Q64.23 8.55 66.58 8.54L66.58 8.54L67.88 8.54L67.88 7.94Q67.88 7.21 67.50 6.77Q67.13 6.33 66.32 6.33L66.32 6.33Q65.61 6.33 65.20 6.67Q64.79 7.01 64.79 7.61L64.79 7.61L61.97 7.61Q61.97 6.69 62.54 5.91Q63.11 5.13 64.14 4.68Q65.18 4.24 66.46 4.24L66.46 4.24Q68.42 4.24 69.57 5.22Q70.71 6.20 70.71 7.98L70.71 7.98L70.71 12.56Q70.72 14.06 71.13 14.83L71.13 14.83L71.13 15ZM65.95 13.04L65.95 13.04Q66.57 13.04 67.10 12.76Q67.63 12.48 67.88 12.01L67.88 12.01L67.88 10.20L66.83 10.20Q64.71 10.20 64.57 11.66L64.57 11.66L64.56 11.83Q64.56 12.35 64.93 12.70Q65.30 13.04 65.95 13.04ZM75.86 0L75.86 15L73.03 15L73.03 0L75.86 0ZM92.69 9.66L92.69 9.81Q92.69 12.35 91.60 13.77Q90.52 15.20 88.57 15.20L88.57 15.20Q86.86 15.20 85.83 13.88L85.83 13.88L85.70 15L83.16 15L83.16 0L85.99 0L85.99 5.38Q86.96 4.24 88.55 4.24L88.55 4.24Q90.49 4.24 91.59 5.66Q92.69 7.08 92.69 9.66L92.69 9.66ZM89.86 9.61L89.86 9.61Q89.86 8.01 89.36 7.27Q88.85 6.53 87.84 6.53L87.84 6.53Q86.49 6.53 85.99 7.64L85.99 7.64L85.99 11.81Q86.50 12.92 87.86 12.92L87.86 12.92Q89.23 12.92 89.66 11.57L89.66 11.57Q89.86 10.93 89.86 9.61ZM97.40 0L97.40 15L94.57 15L94.57 0L97.40 0ZM99.29 9.75L99.29 9.62Q99.29 8.05 99.89 6.82Q100.50 5.59 101.64 4.91Q102.77 4.24 104.28 4.24L104.28 4.24Q106.42 4.24 107.77 5.55Q109.12 6.86 109.28 9.10L109.28 9.10L109.30 9.82Q109.30 12.26 107.94 13.73Q106.58 15.20 104.30 15.20Q102.01 15.20 100.65 13.73Q99.29 12.27 99.29 9.75L99.29 9.75ZM102.11 9.82L102.11 9.82Q102.11 11.33 102.68 12.12Q103.24 12.92 104.30 12.92L104.30 12.92Q105.32 12.92 105.90 12.13Q106.47 11.35 106.47 9.62L106.47 9.62Q106.47 8.14 105.90 7.33Q105.32 6.52 104.28 6.52L104.28 6.52Q103.24 6.52 102.68 7.33Q102.11 8.13 102.11 9.82ZM110.63 9.76L110.63 9.64Q110.63 7.21 111.78 5.72Q112.94 4.24 114.90 4.24L114.90 4.24Q116.64 4.24 117.61 5.43L117.61 5.43L117.72 4.43L120.28 4.43L120.28 14.65Q120.28 16.04 119.65 17.06Q119.02 18.09 117.88 18.62Q116.74 19.16 115.21 19.16L115.21 19.16Q114.04 19.16 112.94 18.70Q111.84 18.23 111.27 17.50L111.27 17.50L112.52 15.78Q113.57 16.96 115.08 16.96L115.08 16.96Q116.20 16.96 116.83 16.36Q117.45 15.76 117.45 14.66L117.45 14.66L117.45 14.09Q116.47 15.20 114.88 15.20L114.88 15.20Q112.98 15.20 111.80 13.71Q110.63 12.22 110.63 9.76L110.63 9.76ZM113.45 9.84L113.45 9.84Q113.45 11.28 114.02 12.09Q114.60 12.91 115.61 12.91L115.61 12.91Q116.89 12.91 117.45 11.94L117.45 11.94L117.45 7.50Q116.88 6.53 115.63 6.53L115.63 6.53Q114.61 6.53 114.03 7.36Q113.45 8.19 113.45 9.84Z"></path></g></svg></svg>